<svg width="226" height="42" viewBox="0 0 1992 202" fill="none" xmlns="http://www.w3.org/2000/svg">
<path d="M28.2 41.3C28.2 48.7 30 55.3 33.6 61.1C37.4 66.7 42 71.6 47.4 75.8C53 80 60.5 85 69.9 90.8C80.1 97.2 88.1 102.7 93.9 107.3C99.9 111.9 104.9 117.6 108.9 124.4C113.1 131 115.2 138.8 115.2 147.8C115.2 158 112.5 167.1 107.1 175.1C101.9 183.1 94.4 189.4 84.6 194C75 198.4 64 200.6 51.6 200.6C43.2 200.6 34.5 199.5 25.5 197.3C16.7 195.1 10 192.4 5.4 189.2C3.6 188 2.6 186.1 2.4 183.5L0.600001 137.9V137.6C0.600001 136.8 1.1 136.4 2.1 136.4C3.1 136.2 3.7 136.5 3.9 137.3C10.5 153.9 18 167.5 26.4 178.1C35 188.7 45.9 194 59.1 194C67.7 194 74.9 191.7 80.7 187.1C86.5 182.3 89.4 174.4 89.4 163.4C89.4 154.6 87.4 146.9 83.4 140.3C79.6 133.7 74.8 128.2 69 123.8C63.4 119.4 55.7 114 45.9 107.6C36.3 101.4 28.8 96.2 23.4 92C18 87.6 13.4 82.3 9.6 76.1C5.8 69.7 3.9 62.3 3.9 53.9C3.9 43.5 6.8 34.7 12.6 27.5C18.4 20.3 25.9 15 35.1 11.6C44.5 7.99999 54.3 6.19999 64.5 6.19999C71.3 6.19999 78.1 6.89999 84.9 8.3C91.7 9.49999 97.4 11.1 102 13.1C105 14.3 106.5 16.2 106.5 18.8L107.4 59.6C107.4 60.2 106.8 60.6 105.6 60.8C104.6 61 104 60.8 103.8 60.2C99.8 48 94.4 37 87.6 27.2C81 17.2 71 12.2 57.6 12.2C48.6 12.2 41.4 14.8 36 20C30.8 25.2 28.2 32.3 28.2 41.3ZM194.351 15.8C182.151 15.8 172.051 19.6 164.051 27.2C156.251 34.6 150.251 45.9 146.051 61.1C146.051 61.5 145.451 61.7 144.251 61.7C143.251 61.7 142.751 61.4 142.751 60.8C143.551 53 144.451 43 145.451 30.8C146.451 18.4 146.951 9.09999 146.951 2.9C146.951 1.9 147.451 1.4 148.451 1.4C149.651 1.4 150.251 1.9 150.251 2.9C150.251 7.3 155.851 9.5 167.051 9.5C184.251 10.1 204.351 10.4 227.351 10.4C239.151 10.4 251.651 10.2 264.851 9.8L285.251 9.5C292.851 9.5 298.351 8.99999 301.751 7.99998C305.351 6.99998 307.651 4.99999 308.651 1.99999C308.851 1.19999 309.451 0.799987 310.451 0.799987C311.451 0.799987 311.951 1.19999 311.951 1.99999C311.351 8.19999 310.751 17.6 310.151 30.2C309.551 42.8 309.251 53 309.251 60.8C309.251 61.4 308.651 61.7 307.451 61.7C306.451 61.7 305.851 61.4 305.651 60.8C303.651 45.4 298.951 34.1 291.551 26.9C284.151 19.5 274.151 15.8 261.551 15.8C255.951 15.8 251.751 16.3 248.951 17.3C246.351 18.3 244.551 20.1 243.551 22.7C242.751 25.1 242.351 29 242.351 34.4V172.7C242.351 178.9 242.951 183.4 244.151 186.2C245.351 189 247.751 190.9 251.351 191.9C254.951 192.9 260.651 193.4 268.451 193.4C269.051 193.4 269.351 194 269.351 195.2C269.351 196.4 269.051 197 268.451 197C261.451 197 255.951 196.9 251.951 196.7L227.351 196.4L203.951 196.7C199.751 196.9 193.951 197 186.551 197C186.151 197 185.951 196.4 185.951 195.2C185.951 194 186.151 193.4 186.551 193.4C194.351 193.4 200.051 192.9 203.651 191.9C207.451 190.9 209.951 189 211.151 186.2C212.551 183.2 213.251 178.7 213.251 172.7V33.8C213.251 28.6 212.751 24.8 211.751 22.4C210.751 20 208.951 18.3 206.351 17.3C203.751 16.3 199.751 15.8 194.351 15.8ZM515.152 193.4C516.152 193.4 516.652 194 516.652 195.2C516.652 196.4 516.152 197 515.152 197C511.352 197 505.252 196.8 496.852 196.4C488.452 196 482.352 195.8 478.552 195.8C473.552 195.8 467.652 196 460.852 196.4C454.052 196.8 448.752 197 444.952 197C444.152 197 443.752 196.4 443.752 195.2C443.752 194 444.152 193.4 444.952 193.4C450.752 193.4 454.952 192.8 457.552 191.6C460.352 190.2 461.752 188 461.752 185C461.752 182 460.052 176.9 456.652 169.7L433.852 123.5H361.252L346.852 155.9C344.252 161.9 342.952 167.3 342.952 172.1C342.952 179.1 345.452 184.4 350.452 188C355.452 191.6 362.452 193.4 371.452 193.4C372.452 193.4 372.952 194 372.952 195.2C372.952 196.4 372.452 197 371.452 197C367.852 197 362.652 196.8 355.852 196.4C348.252 196 341.652 195.8 336.052 195.8C330.652 195.8 324.352 196 317.152 196.4C310.752 196.8 305.452 197 301.252 197C300.252 197 299.752 196.4 299.752 195.2C299.752 194 300.252 193.4 301.252 193.4C306.852 193.4 311.552 192.3 315.352 190.1C319.152 187.9 322.852 184 326.452 178.4C330.052 172.6 334.352 164.1 339.352 152.9L403.852 7.69999C404.252 7.1 405.152 6.8 406.552 6.8C407.952 6.8 408.752 7.1 408.952 7.69999L482.452 155.9C489.452 170.3 495.252 180.2 499.852 185.6C504.652 190.8 509.752 193.4 515.152 193.4ZM364.552 116H430.252L395.752 46.1L364.552 116ZM684.734 9.5C685.134 9.5 685.334 10.1 685.334 11.3C685.334 12.5 685.134 13.1 684.734 13.1C678.134 13.1 670.634 16.6 662.234 23.6C653.834 30.4 646.334 39.2 639.734 50L605.534 105.5V172.7C605.534 178.9 606.034 183.4 607.034 186.2C608.234 189 610.334 190.9 613.334 191.9C616.534 192.9 621.534 193.4 628.334 193.4C628.934 193.4 629.234 194 629.234 195.2C629.234 196.4 628.934 197 628.334 197C621.734 197 616.634 196.9 613.034 196.7L591.134 196.4L569.534 196.7C565.534 196.9 560.234 197 553.634 197C553.234 197 553.034 196.4 553.034 195.2C553.034 194 553.234 193.4 553.634 193.4C560.434 193.4 565.334 192.9 568.334 191.9C571.534 190.9 573.734 189 574.934 186.2C576.134 183.2 576.734 178.7 576.734 172.7V110.9L531.134 41.3C524.334 30.7 518.434 23.4 513.434 19.4C508.634 15.2 503.934 13.1 499.334 13.1C498.734 13.1 498.434 12.5 498.434 11.3C498.434 10.1 498.734 9.5 499.334 9.5L509.234 9.8C513.634 10.2 516.834 10.4 518.834 10.4C525.634 10.4 535.234 10.2 547.634 9.8L566.234 9.5C566.634 9.5 566.834 10.1 566.834 11.3C566.834 12.5 566.634 13.1 566.234 13.1C558.034 13.1 553.934 15.9 553.934 21.5C553.934 24.3 555.134 27.5 557.534 31.1L601.034 98L631.634 47.9C636.634 39.7 639.134 32.5 639.134 26.3C639.134 17.5 633.634 13.1 622.634 13.1C622.234 13.1 622.034 12.5 622.034 11.3C622.034 10.1 622.234 9.5 622.634 9.5L638.234 9.8C646.634 10.2 654.334 10.4 661.334 10.4C664.734 10.4 668.834 10.2 673.634 9.8L684.734 9.5ZM824.297 51.2C824.297 51.6 823.697 51.9 822.497 52.1C821.497 52.3 820.897 52.1 820.697 51.5C815.897 28.7 801.997 17.3 778.997 17.3H766.997C759.797 17.3 754.697 18.6 751.697 21.2C748.697 23.8 747.197 28.1 747.197 34.1V99.2H771.797C794.197 99.2 805.397 91.7 805.397 76.7C805.397 76.3 805.997 76.1 807.197 76.1C808.397 76.1 808.997 76.3 808.997 76.7L808.697 103.1C808.697 109.3 808.797 113.9 808.997 116.9L809.297 132.5C809.297 133.1 808.697 133.4 807.497 133.4C806.297 133.4 805.697 133.1 805.697 132.5C805.697 115.5 794.197 107 771.197 107H747.197V171.5C747.197 177.9 747.997 182.6 749.597 185.6C751.197 188.4 754.297 190.4 758.897 191.6C763.697 192.8 770.997 193.4 780.797 193.4C781.197 193.4 781.397 194 781.397 195.2C781.397 196.4 781.197 197 780.797 197C772.597 197 766.197 196.9 761.597 196.7L732.197 196.4L710.297 196.7C706.497 196.9 701.197 197 694.397 197C693.797 197 693.497 196.4 693.497 195.2C693.497 194 693.797 193.4 694.397 193.4C701.597 193.4 706.797 192.9 709.997 191.9C713.397 190.9 715.697 189 716.897 186.2C718.097 183.2 718.697 178.7 718.697 172.7V33.8C718.697 27.8 718.097 23.4 716.897 20.6C715.897 17.8 713.797 15.9 710.597 14.9C707.397 13.7 702.497 13.1 695.897 13.1C695.297 13.1 694.997 12.5 694.997 11.3C694.997 10.1 695.297 9.5 695.897 9.5H820.697C822.697 9.5 823.697 10.4 823.697 12.2L824.297 51.2ZM948.37 200.6C929.77 200.6 913.17 196.3 898.57 187.7C884.17 178.9 872.97 167.1 864.97 152.3C857.17 137.3 853.27 121 853.27 103.4C853.27 82.8 858.47 65.2 868.87 50.6C879.27 35.8 892.57 24.7 908.77 17.3C925.17 9.89999 941.87 6.19999 958.87 6.19999C977.87 6.19999 994.57 10.7 1008.97 19.7C1023.37 28.5 1034.37 40.2 1041.97 54.8C1049.77 69.4 1053.67 84.9 1053.67 101.3C1053.67 119.5 1048.87 136.2 1039.27 151.4C1029.67 166.6 1016.77 178.6 1000.57 187.4C984.57 196.2 967.17 200.6 948.37 200.6ZM958.57 193.4C970.57 193.4 981.27 190.2 990.67 183.8C1000.27 177.2 1007.77 167.6 1013.17 155C1018.77 142.4 1021.57 127.4 1021.57 110C1021.57 91.6 1018.47 75.1 1012.27 60.5C1006.27 45.9 997.57 34.5 986.17 26.3C974.97 18.1 961.77 14 946.57 14C927.17 14 912.07 21 901.27 35C890.67 48.8 885.37 68 885.37 92.6C885.37 111.6 888.47 128.8 894.67 144.2C901.07 159.6 909.77 171.7 920.77 180.5C931.97 189.1 944.57 193.4 958.57 193.4ZM1194.86 6.19999C1217.06 6.19999 1234.96 9.29999 1248.56 15.5C1250.16 16.3 1251.16 17.1 1251.56 17.9C1251.96 18.5 1252.36 20 1252.76 22.4L1256.36 62C1256.36 62.6 1255.86 63 1254.86 63.2C1253.86 63.4 1253.16 63.1 1252.76 62.3C1247.56 45.9 1239.76 33.4 1229.36 24.8C1219.16 16.2 1206.46 11.9 1191.26 11.9C1176.66 11.9 1163.56 15.6 1151.96 23C1140.56 30.2 1131.66 40.7 1125.26 54.5C1118.86 68.1 1115.66 84 1115.66 102.2C1115.66 120.2 1119.06 136.3 1125.86 150.5C1132.66 164.5 1141.96 175.4 1153.76 183.2C1165.56 191 1178.86 194.9 1193.66 194.9C1208.26 194.9 1220.36 191.1 1229.96 183.5C1239.76 175.7 1248.36 163.4 1255.76 146.6C1255.96 146 1256.56 145.8 1257.56 146C1258.56 146.2 1259.06 146.5 1259.06 146.9L1255.16 182.9C1254.96 185.3 1254.56 186.8 1253.96 187.4C1253.56 188 1252.56 188.7 1250.96 189.5C1232.96 196.9 1213.86 200.6 1193.66 200.6C1172.26 200.6 1153.16 196.6 1136.36 188.6C1119.56 180.4 1106.46 169 1097.06 154.4C1087.66 139.6 1082.96 122.7 1082.96 103.7C1082.96 84.9 1087.86 68.1 1097.66 53.3C1107.46 38.5 1120.86 27 1137.86 18.8C1154.86 10.4 1173.86 6.19999 1194.86 6.19999ZM1444.34 46.1C1444.34 35.7 1441.94 27.6 1437.14 21.8C1432.54 16 1425.84 13.1 1417.04 13.1C1416.64 13.1 1416.44 12.5 1416.44 11.3C1416.44 10.1 1416.64 9.5 1417.04 9.5L1430.84 9.8C1438.44 10.2 1444.44 10.4 1448.84 10.4C1452.44 10.4 1457.84 10.2 1465.04 9.8L1478.24 9.5C1478.64 9.5 1478.84 10.1 1478.84 11.3C1478.84 12.5 1478.64 13.1 1478.24 13.1C1470.44 13.1 1464.34 16 1459.94 21.8C1455.74 27.6 1453.64 35.7 1453.64 46.1V130.1C1453.64 144.5 1450.54 157.1 1444.34 167.9C1438.34 178.5 1429.74 186.7 1418.54 192.5C1407.54 198.3 1394.74 201.2 1380.14 201.2C1365.54 201.2 1352.54 198.4 1341.14 192.8C1329.74 187 1320.84 178.8 1314.44 168.2C1308.24 157.4 1305.14 144.8 1305.14 130.4V33.8C1305.14 27.8 1304.54 23.4 1303.34 20.6C1302.14 17.8 1299.94 15.9 1296.74 14.9C1293.74 13.7 1288.94 13.1 1282.34 13.1C1281.74 13.1 1281.44 12.5 1281.44 11.3C1281.44 10.1 1281.74 9.5 1282.34 9.5L1297.94 9.8C1306.74 10.2 1313.84 10.4 1319.24 10.4C1325.24 10.4 1332.64 10.2 1341.44 9.8L1356.44 9.5C1357.04 9.5 1357.34 10.1 1357.34 11.3C1357.34 12.5 1357.04 13.1 1356.44 13.1C1349.84 13.1 1344.94 13.7 1341.74 14.9C1338.54 16.1 1336.34 18.2 1335.14 21.2C1334.14 24 1333.64 28.4 1333.64 34.4V119.9C1333.64 143.7 1338.54 161.5 1348.34 173.3C1358.34 184.9 1372.24 190.7 1390.04 190.7C1407.04 190.7 1420.34 185.5 1429.94 175.1C1439.54 164.5 1444.34 149.6 1444.34 130.4V46.1ZM1529.66 41.3C1529.66 48.7 1531.46 55.3 1535.06 61.1C1538.86 66.7 1543.46 71.6 1548.86 75.8C1554.46 80 1561.96 85 1571.36 90.8C1581.56 97.2 1589.56 102.7 1595.36 107.3C1601.36 111.9 1606.36 117.6 1610.36 124.4C1614.56 131 1616.66 138.8 1616.66 147.8C1616.66 158 1613.96 167.1 1608.56 175.1C1603.36 183.1 1595.86 189.4 1586.06 194C1576.46 198.4 1565.46 200.6 1553.06 200.6C1544.66 200.6 1535.96 199.5 1526.96 197.3C1518.16 195.1 1511.46 192.4 1506.86 189.2C1505.06 188 1504.06 186.1 1503.86 183.5L1502.06 137.9V137.6C1502.06 136.8 1502.56 136.4 1503.56 136.4C1504.56 136.2 1505.16 136.5 1505.36 137.3C1511.96 153.9 1519.46 167.5 1527.86 178.1C1536.46 188.7 1547.36 194 1560.56 194C1569.16 194 1576.36 191.7 1582.16 187.1C1587.96 182.3 1590.86 174.4 1590.86 163.4C1590.86 154.6 1588.86 146.9 1584.86 140.3C1581.06 133.7 1576.26 128.2 1570.46 123.8C1564.86 119.4 1557.16 114 1547.36 107.6C1537.76 101.4 1530.26 96.2 1524.86 92C1519.46 87.6 1514.86 82.3 1511.06 76.1C1507.26 69.7 1505.36 62.3 1505.36 53.9C1505.36 43.5 1508.26 34.7 1514.06 27.5C1519.86 20.3 1527.36 15 1536.56 11.6C1545.96 7.99999 1555.76 6.19999 1565.96 6.19999C1572.76 6.19999 1579.56 6.89999 1586.36 8.3C1593.16 9.49999 1598.86 11.1 1603.46 13.1C1606.46 14.3 1607.96 16.2 1607.96 18.8L1608.86 59.6C1608.86 60.2 1608.26 60.6 1607.06 60.8C1606.06 61 1605.46 60.8 1605.26 60.2C1601.26 48 1595.86 37 1589.06 27.2C1582.46 17.2 1572.46 12.2 1559.06 12.2C1550.06 12.2 1542.86 14.8 1537.46 20C1532.26 25.2 1529.66 32.3 1529.66 41.3ZM1779.22 150.2C1779.22 149.8 1779.62 149.6 1780.42 149.6C1781.02 149.6 1781.52 149.8 1781.92 150.2C1782.52 150.4 1782.82 150.6 1782.82 150.8C1780.82 166 1779.82 179.9 1779.82 192.5C1779.82 194.1 1779.52 195.3 1778.92 196.1C1778.32 196.7 1777.12 197 1775.32 197H1645.12C1644.52 197 1644.22 196.4 1644.22 195.2C1644.22 194 1644.52 193.4 1645.12 193.4C1651.92 193.4 1656.82 192.9 1659.82 191.9C1663.02 190.9 1665.12 189 1666.12 186.2C1667.32 183.2 1667.92 178.7 1667.92 172.7V33.8C1667.92 27.8 1667.32 23.4 1666.12 20.6C1665.12 17.8 1663.02 15.9 1659.82 14.9C1656.62 13.7 1651.72 13.1 1645.12 13.1C1644.52 13.1 1644.22 12.5 1644.22 11.3C1644.22 10.1 1644.52 9.5 1645.12 9.5H1769.92C1771.92 9.5 1772.92 10.4 1772.92 12.2L1773.52 51.2C1773.52 51.6 1772.92 51.9 1771.72 52.1C1770.72 52.3 1770.12 52.1 1769.92 51.5C1765.12 28.7 1751.22 17.3 1728.22 17.3H1716.22C1709.02 17.3 1703.92 18.6 1700.92 21.2C1697.92 23.8 1696.42 28.2 1696.42 34.4V95.6H1725.22C1747.22 95.6 1758.22 88.2 1758.22 73.4C1758.22 72.8 1758.72 72.5 1759.72 72.5C1760.92 72.5 1761.52 72.8 1761.52 73.4L1761.22 99.5L1761.52 113.6C1761.92 120 1762.12 125.2 1762.12 129.2C1762.12 129.6 1761.52 129.8 1760.32 129.8C1759.12 129.8 1758.52 129.6 1758.52 129.2C1758.52 112 1747.32 103.4 1724.92 103.4H1696.42V171.5C1696.42 178.1 1697.62 182.7 1700.02 185.3C1702.62 187.9 1707.12 189.2 1713.52 189.2H1728.22C1755.02 189.2 1772.02 176.2 1779.22 150.2ZM1891.98 198.2C1885.78 198.2 1878.58 197.9 1870.38 197.3C1867.38 197.1 1863.58 196.9 1858.98 196.7C1854.38 196.5 1849.18 196.4 1843.38 196.4L1822.08 196.7C1818.28 196.9 1812.98 197 1806.18 197C1805.78 197 1805.58 196.4 1805.58 195.2C1805.58 194 1805.78 193.4 1806.18 193.4C1812.98 193.4 1817.88 192.9 1820.88 191.9C1824.08 190.9 1826.28 189 1827.48 186.2C1828.68 183.2 1829.28 178.7 1829.28 172.7V33.8C1829.28 27.8 1828.68 23.4 1827.48 20.6C1826.48 17.8 1824.38 15.9 1821.18 14.9C1817.98 13.7 1813.08 13.1 1806.48 13.1C1806.08 13.1 1805.88 12.5 1805.88 11.3C1805.88 10.1 1806.08 9.5 1806.48 9.5L1822.38 9.8C1831.18 10.2 1838.18 10.4 1843.38 10.4C1851.38 10.4 1859.48 10.1 1867.68 9.5C1877.68 9.09999 1884.38 8.89999 1887.78 8.89999C1908.18 8.89999 1926.28 12.9 1942.08 20.9C1957.88 28.9 1970.08 39.8 1978.68 53.6C1987.48 67.4 1991.88 82.9 1991.88 100.1C1991.88 119.5 1987.38 136.7 1978.38 151.7C1969.38 166.5 1957.28 178 1942.08 186.2C1926.88 194.2 1910.18 198.2 1891.98 198.2ZM1888.98 192.2C1902.78 192.2 1914.98 188.9 1925.58 182.3C1936.38 175.7 1944.78 166 1950.78 153.2C1956.78 140.2 1959.78 124.7 1959.78 106.7C1959.78 89.5 1956.88 74 1951.08 60.2C1945.48 46.2 1937.48 35.2 1927.08 27.2C1916.68 19 1904.58 14.9 1890.78 14.9C1882.38 14.9 1875.88 15.4 1871.28 16.4C1866.68 17.4 1863.28 19.3 1861.08 22.1C1859.08 24.7 1858.08 28.8 1858.08 34.4V169.4C1858.08 177.6 1860.18 183.5 1864.38 187.1C1868.58 190.5 1876.78 192.2 1888.98 192.2Z" fill="white"/>
</svg>
